# xmcd CD database file
#
# Track frame offsets:
#	150
#	11200
#	24487
#	41005
#	53077
#	67542
#	83560
#	100092
#	112465
#	128110
#
# Disc length: 1867 seconds
#
# Revision: 8
# Processed by: cddbd v1.5.1PL0 Copyright (c) Steve Scherf et al.
# Submitted via: NeoAudio 9.9.9
#
DISCID=7a07490a
DTITLE=Randy Travis - Always and Forever
DYEAR=1987
DGENRE=Country
TTITLE0=Too Gone For Too Long
TTITLE1=My House
TTITLE2=Good Intentions
TTITLE3=What'll You Do About Me
TTITLE4=I Won't Need You Anymore
TTITLE5=Forever And Ever, Amen
TTITLE6=I Told You So
TTITLE7=Anything
TTITLE8=The Truth Is Lyin' Next To You
TTITLE9=Tonight We're Gonna Tear Down The Walls
EXTD=YEAR: 1987
EXTT0=
EXTT1=
EXTT2=
EXTT3=
EXTT4=
EXTT5=
EXTT6=
EXTT7=
EXTT8=
EXTT9=
PLAYORDER=
